<svg width="210" height="30" viewBox="0 0 210 30" fill="none" xmlns="http://www.w3.org/2000/svg">
<path d="M0 15.0503C0 6.95029 6.18 1.05029 14.51 1.05029C18.74 1.05029 22.41 2.49029 24.92 5.32029L22.38 7.79029C20.27 5.56029 17.68 4.55029 14.67 4.55029C8.49 4.55029 3.91 9.01029 3.91 15.0703C3.91 21.1303 8.48 25.5903 14.67 25.5903C17.68 25.5903 20.27 24.5303 22.38 22.3003L24.92 24.7703C22.42 27.5803 18.74 29.0703 14.48 29.0703C6.18 29.0503 0 23.1403 0 15.0503Z" fill="#4D4D4D"/>
<path d="M89.1492 14.8903H92.9092V25.5703C90.1692 27.8803 86.3792 29.0503 82.5392 29.0503C74.1292 29.0503 67.9492 23.1503 67.9492 15.0503C67.9492 6.95029 74.1292 1.05029 82.6192 1.05029C86.9592 1.05029 90.6392 2.49029 93.1392 5.28029L90.7192 7.71029C88.4492 5.52029 85.8692 4.54029 82.7792 4.54029C76.4392 4.54029 71.8692 8.96029 71.8692 15.0603C71.8692 21.1603 76.4392 25.5803 82.7392 25.5803C85.0492 25.5803 87.1992 25.0703 89.1492 23.8203V14.8903Z" fill="#4D4D4D"/>
<path d="M126.392 1.3501V28.7301H123.192L106.762 8.3101V28.7301H102.852V1.3501H106.062L122.492 21.7601V1.3501H126.392Z" fill="#4D4D4D"/>
<path d="M137.891 1.3501H141.801V28.7301H137.891V1.3501Z" fill="#4D4D4D"/>
<path d="M170.372 28.7301L164.463 20.3201C163.913 20.3601 163.323 20.4001 162.743 20.4001H155.973V28.7301H152.062V1.3501H162.743C169.863 1.3501 174.163 4.9501 174.163 10.8901C174.163 15.1201 171.973 18.1601 168.133 19.5301L174.633 28.7201L170.372 28.7301ZM170.262 10.9001C170.262 6.9901 167.643 4.7601 162.633 4.7601H155.982V17.0801H162.633C167.633 17.0801 170.262 14.8101 170.262 10.9001Z" fill="#4D4D4D"/>
<path d="M202.879 21.8901H188.329L185.319 28.7301H181.289L193.689 1.3501H197.559L209.999 28.7301H205.889L202.879 21.8901ZM201.509 18.7601L195.599 5.3501L189.689 18.7601H201.509Z" fill="#4D4D4D"/>
<path d="M53.79 15.6302C53.44 21.0002 48.98 25.2702 43.53 25.2702C38.08 25.2702 33.23 20.6502 33.23 14.9702C33.23 9.29018 37.85 4.66018 43.53 4.66018C47.52 4.66018 50.98 6.94018 52.69 10.2702L55.73 8.05018C53.32 3.80018 48.76 0.930176 43.53 0.930176C35.79 0.930176 29.5 7.23018 29.5 14.9602C29.5 22.6902 35.8 28.9902 43.53 28.9902C51.26 28.9902 57.56 22.6902 57.56 14.9602C57.56 14.2902 57.5 13.6302 57.4 12.9802L53.79 15.6302Z" fill="#006DB7"/>
<path d="M60.0905 5.19971C58.5405 5.19971 57.2905 6.44971 57.2905 7.99971C57.2905 8.15971 57.3105 8.30971 57.3405 8.46971L47.7805 15.4497C47.3405 15.1797 46.8305 15.0097 46.2805 15.0097C45.9505 15.0097 45.6305 15.0797 45.3405 15.1897L43.4605 13.0997C43.5105 12.8997 43.5305 12.6897 43.5305 12.4697C43.5305 10.9197 42.2805 9.66971 40.7305 9.66971C39.1805 9.66971 37.9605 10.8997 37.9405 12.4397L34.4805 14.9697C34.4805 15.9297 34.6405 16.8597 34.9205 17.7197L39.0605 14.6897C39.5305 15.0397 40.1005 15.2597 40.7405 15.2597C41.1405 15.2597 41.5205 15.1697 41.8605 15.0197L43.6305 16.9797C43.5505 17.2397 43.4905 17.5097 43.4905 17.7997C43.4905 19.3497 44.7405 20.5997 46.2905 20.5997C47.8405 20.5997 49.0905 19.3497 49.0905 17.7997C49.0905 17.7297 49.0905 17.6597 49.0705 17.5897L58.8205 10.4697C59.2005 10.6697 59.6405 10.7897 60.1005 10.7897C61.6505 10.7897 62.9005 9.53971 62.9005 7.98971C62.8805 6.44971 61.6305 5.19971 60.0905 5.19971Z" fill="#006DB7"/>
</svg>
