<svg xmlns="http://www.w3.org/2000/svg" width="203" height="60" viewBox="0 0 203 60">
    <defs>
        <radialGradient id="prefix__a" cx="40.654%" cy="3.912%" r="88.402%" fx="40.654%" fy="3.912%">
            <stop offset="0%" stop-color="#FFEF2A"/>
            <stop offset="100%" stop-color="#94C549"/>
        </radialGradient>
        <radialGradient id="prefix__b" cx="51.498%" cy="-48.904%" r="96.991%" fx="51.498%" fy="-48.904%">
            <stop offset="0%" stop-color="#FFEF2A"/>
            <stop offset="100%" stop-color="#94C549"/>
        </radialGradient>
        <radialGradient id="prefix__c" cx="49.961%" cy="49.967%" r="87.039%" fx="49.961%" fy="49.967%" gradientTransform="matrix(1 0 0 .44486 0 .277)">
            <stop offset="35.71%" stop-color="#FFEF2A"/>
            <stop offset="100%" stop-color="#709B39"/>
        </radialGradient>
    </defs>
    <g fill="none">
        <g>
            <path fill="url(#prefix__a)" d="M25.414 59.664l-.14-.07C10.947 49.949.564 34.954.458 34.778l-.106-.141.106-.141c.105-.14 10.137-15.206 24.816-24.816l.14-.106.141.106c15.101 9.926 24.71 24.675 24.816 24.816l.07.14-.07.142c-.105.14-9.152 15.804-24.816 24.816l-.14.07z" transform="translate(152.064)"/>
            <path fill="url(#prefix__b)" d="M25.38 57.94C11.756 48.786 2.076 34.636 2.076 34.636s9.398-14.221 23.373-23.373c14.326 9.398 23.302 23.302 23.302 23.302S40.304 49.35 25.379 57.94z" transform="translate(152.064)"/>
            <path fill="#388F3F" d="M30.202 25.38c-.212 5.35-2.218 11.017-5.527 15.522-3.027 4.119-6.688 7.392-10.525 9.575 1.162 1.091 2.359 2.182 3.59 3.273 1.655-.598 3.274-1.337 4.788-2.288 4.47-2.78 7.85-6.828 9.82-11.721 1.972-4.928 2.324-10.208.951-15.242" opacity=".3" transform="translate(152.064)"/>
            <path fill="#296334" d="M25.027.317c-2.182 1.443-3.66 3.625-3.731 3.731l-.246.387.281.387c.07.106 1.549 2.253 3.696 3.696l.352.247.387-.211c2.394-1.373 3.732-3.696 3.767-3.767l.211-.352-.246-.352c-.07-.105-1.479-2.253-3.732-3.731L25.38.106l-.352.21z" transform="translate(152.064)"/>
            <path fill="url(#prefix__c)" d="M18.269 47.133c2.323-2.007 4.54-4.506 6.441-7.392 3.063-4.647 4.893-10.49 5.034-15.981.106-4.189-.74-7.92-2.464-10.806l2.675 3.273c1.197 2.042 2.112 4.26 2.71 6.618 1.303 5.174 1.021 10.595-.774 15.664L18.27 47.133z" transform="translate(152.064)"/>
            <path fill="#296334" d="M8.272 54.067c-2.288-.176-4.54-.669-6.723-1.513-.352-.141-.74-.282-1.091-.458-.106-.035-.176-.106-.176-.176h.035c.035 0 .07 0 .105.035.845.247 1.725.387 2.64.458 7.252.528 15.77-4.365 21.754-12.496 3.309-4.506 5.315-10.173 5.526-15.523.176-4.823-1.09-8.976-3.555-11.968 3.203 2.956 5.527 6.828 6.688 11.088 1.373 5.033 1.021 10.313-.95 15.241-1.971 4.893-5.35 8.941-9.821 11.722-4.33 2.675-9.434 3.942-14.432 3.59z" transform="translate(152.064)"/>
            <path fill="#004A25" d="M33.44 23.514c-.88-3.239-2.429-6.23-4.506-8.8 1.901 2.464 3.31 5.315 4.119 8.342 1.373 5.104 1.056 10.42-.95 15.418-1.972 4.963-5.421 9.046-9.927 11.862-4.365 2.71-9.54 4.013-14.573 3.626-.211 0-.457-.036-.669-.07.458.07.916.105 1.338.14 4.963.387 10.102-.915 14.397-3.59 4.47-2.781 7.85-6.83 9.82-11.722 2.007-4.893 2.324-10.173.951-15.206z" opacity=".5" transform="translate(152.064)"/>
        </g>
        <g fill="#296334">
            <path d="M79.376 12.918c-4.506 0-6.794-1.443-6.794-4.259V5.386l.317-.176c.176-.106.88-.458 1.267-.67l.916-.457v4.435c0 1.268.492 2.746 4.33 2.746h9.433c2.288 0 2.957-.458 3.133-1.338-.74.247-1.725.423-2.676.493l-.598.035c-3.555 0-5.667-1.337-5.667-3.555 0-3.203 3.977-3.555 5.702-3.555 2.359 0 4.119.563 5.034 1.62.457.562.704 1.196.704 1.935v2.746c0 2.921-2.887 3.309-5.421 3.309h-9.68v-.036zm9.328-8.025c-1.232 0-3.274.246-3.274 2.006 0 1.76 2.042 2.007 3.274 2.007 1.232 0 3.309-.247 3.309-2.007 0-1.76-2.077-2.006-3.309-2.006zM87.542.106H89.971V2.605H87.542zM94.477 16.58l-1.338-1.62h1.83c4.26 0 4.788-1.478 4.788-2.746V4.506l.563-.036c.282-.035.88-.07 1.197-.105l.669-.07v6.37c1.196.388 2.534.599 3.907.599 2.886 0 3.133-1.162 3.133-2.253v-3.59l2.428-.247v3.38c3.38-3.31 7.428-4.47 10.173-4.47 4.083 0 6.512 1.654 6.512 4.4 0 1.126-.352 2.04-1.056 2.745h6.794c-.563-.563-.845-1.303-.845-2.112 0-3.344 4.189-3.696 5.984-3.696 3.802 0 5.984 1.337 5.984 3.696 0 2.499-2.006 3.766-5.984 3.766h-24.077c-1.69 0-3.414-.176-4.576-.317-.528-.035-.915-.105-1.091-.14h-.035c-.81.281-1.901.457-3.239.457-1.408 0-2.71-.14-4.012-.457-.07 2.78-2.394 4.118-7.11 4.118h-.6v.035zm44.774-9.54c-1.302 0-3.52.282-3.52 2.147 0 1.795 2.112 2.077 3.344 2.077h.176c3.239 0 3.485-.986 3.485-2.077.035-1.865-2.182-2.147-3.485-2.147zm-27.21 4.083c1.092.106 2.43.176 3.31.176h6.335c2.71 0 4.084-.915 4.084-2.745 0-1.866-1.303-2.746-3.943-2.746-2.429-.035-7.145 1.654-9.785 5.315zM2.922 1.549H5.140000000000001V3.943H2.922zM6.195 1.549H8.413V3.943H6.195zM7.85 12.742v-1.337c-.775.105-1.584.176-2.288.176-4.436 0-5.35-1.866-5.35-3.45 0-2.288 2.04-3.59 5.596-3.59 1.69 0 2.675.105 3.942.317l.528.07v6.16H12.954c2.57-.07 2.78-1.162 2.78-2.147V4.61l.564-.035c.281-.035.844-.07 1.126-.106l.669-.07v4.858c0 2.041-1.408 3.203-4.189 3.414v.07H7.85zM5.773 6.266c-2.077 0-3.098.633-3.098 1.9 0 1.056.493 1.76 2.887 1.76.704 0 1.513-.07 2.252-.176V6.406c-.704-.14-1.267-.14-2.041-.14zM15.699.95H18.093V3.3789999999999996H15.699zM30.237.986H32.455V3.38H30.237zM33.475.986H35.693V3.38H33.475zM38.368 13.904H40.586V16.298000000000002H38.368zM22.352 16.298l-.176-.247c-.035-.07-.14-.176-.282-.317l-.95-1.056h1.936c3.52 0 4.294-1.056 4.506-1.936h-1.972c-3.379 0-5.42-1.337-5.42-3.52 0-2.64 3.027-3.555 5.632-3.555 1.408 0 2.288.07 3.696.317l.528.07v5.104h.739c1.971-.07 2.745-.668 2.745-2.147v-4.33l.564-.035c.281-.035.81-.07 1.126-.105l.669-.07v4.857c0 .493-.106.95-.282 1.338 1.021.316 2.147.492 3.309.492 2.57-.07 2.78-1.161 2.78-2.147v-4.33l.564-.035c.246-.035.704-.07 1.02-.105l.74-.07.035.668v4.189c0 2.042-1.408 3.203-4.189 3.414v.036l-.246.035h-1.162v-.035c-1.513-.07-2.921-.317-4.188-.704-.528.316-1.232.528-2.077.633l.035.106h-2.218c-.281 2.358-2.534 3.52-6.793 3.52h-.669v-.035zm3.309-9.082c-1.549 0-3.309.528-3.309 1.971 0 1.197 1.197 1.936 3.168 1.936h1.971V7.392c-.669-.106-1.056-.176-1.83-.176zM41.642 13.904H43.86V16.298000000000002H41.642zM50.477.95H52.870999999999995V3.3789999999999996H50.477zM45.338 16.298l-.176-.247c-.036-.07-.141-.176-.247-.352l-.81-1.02h1.76c4.084 0 4.612-1.409 4.612-2.605V6.547l.563-.035c.282-.035.845-.07 1.126-.106l.67-.07v4.224c1.09.352 2.252.528 3.484.563 2.57-.07 2.78-1.161 2.78-2.147v-7.92L60.299.95c.176 0 .352-.035.492-.035l.67-.07v8.483c0 2.042-1.409 3.203-4.19 3.414v.036l-.21.035h-1.162v-.035c-1.092-.036-2.112-.176-3.063-.388-.07 2.64-2.393 3.943-6.864 3.943h-.633v-.035zM64.698 12.742L64.698 1.056 67.056.81 67.056 12.742z" transform="translate(0 15.84)"/>
        </g>
        <g fill="#296334">
            <g>
                <path d="M1.302 12.109V2.64c0-.95-.176-1.302-.704-1.408l-.387-.07v-.88h4.365c4.189 0 5.069 1.76 5.069 3.273 0 1.021-.563 1.83-1.62 2.394 2.007.563 2.253 1.83 2.253 2.816 0 1.513-.88 3.344-5.174 3.344H1.302zM3.45 10.77c.457.106.95.176 1.408.176 1.161 0 3.097-.281 3.097-2.112 0-1.725-1.69-2.077-3.097-2.077H3.45v4.013zm1.408-5.28c.95 0 2.57-.422 2.57-2.006 0-1.303-1.48-2.007-2.922-2.007-.352 0-.74.07-1.056.106v3.907h1.408z" transform="translate(0 36.96) translate(0 .352)"/>
                <path d="M1.302 12.109V2.64c0-.95-.176-1.302-.704-1.408l-.387-.07v-.88h4.365c4.189 0 5.069 1.76 5.069 3.273 0 1.021-.563 1.83-1.62 2.394 2.007.563 2.253 1.83 2.253 2.816 0 1.513-.88 3.344-5.174 3.344H1.302zM3.45 10.77c.457.106.95.176 1.408.176 1.161 0 3.097-.281 3.097-2.112 0-1.725-1.69-2.077-3.097-2.077H3.45v4.013zm1.408-5.28c.95 0 2.57-.422 2.57-2.006 0-1.303-1.48-2.007-2.922-2.007-.352 0-.74.07-1.056.106v3.907h1.408z" transform="translate(0 36.96) translate(0 .352)"/>
            </g>
            <g>
                <path d="M11.158 12.18c-.88 0-2.428-.318-3.273-2.394l-.387-.916H2.886c-.316.74-1.232 2.816-1.302 2.957l-.106.282H.07l.282-.634c.106-.211 1.162-2.675 2.323-5.28C3.837 3.59 5.104.67 5.175.563L5.28.282h.915l.106.281c.07.176 3.696 8.66 3.872 9.011.528 1.268.915 1.514 1.584 1.584l.387.036v.81l-.352.07c-.211.105-.458.105-.634.105zM6.9 7.602L5.174 3.661l-1.76 3.942H6.9z" transform="translate(0 36.96) translate(10.208 .352)"/>
                <path d="M11.158 12.18c-.88 0-2.428-.318-3.273-2.394l-.387-.916H2.886c-.316.74-1.232 2.816-1.302 2.957l-.106.282H.07l.282-.634c.106-.211 1.162-2.675 2.323-5.28C3.837 3.59 5.104.67 5.175.563L5.28.282h.915l.106.281c.07.176 3.696 8.66 3.872 9.011.528 1.268.915 1.514 1.584 1.584l.387.036v.81l-.352.07c-.211.105-.458.105-.634.105zM6.9 7.602L5.174 3.661l-1.76 3.942H6.9z" transform="translate(0 36.96) translate(10.208 .352)"/>
            </g>
            <g>
                <path d="M9.856 12.285l-.14-.176C9.61 12.003 5.42 6.969 2.64 3.66v8.448H1.373V2.64c0-.88-.247-1.267-.88-1.373l-.352-.07v-.88h.915c1.126 0 1.971.352 2.605 1.126l5.737 6.829V.352h1.268V12.32h-.81v-.035z" transform="translate(0 36.96) translate(21.472 .352)"/>
                <path d="M9.856 12.285l-.14-.176C9.61 12.003 5.42 6.969 2.64 3.66v8.448H1.373V2.64c0-.88-.247-1.267-.88-1.373l-.352-.07v-.88h.915c1.126 0 1.971.352 2.605 1.126l5.737 6.829V.352h1.268V12.32h-.81v-.035z" transform="translate(0 36.96) translate(21.472 .352)"/>
            </g>
            <g>
                <path d="M11.51 15.594c-3.027-.036-5.315-1.127-7.25-3.38C1.794 11.475.21 9.152.21 6.23.211 2.57 2.605 0 5.984 0c3.414 0 5.773 2.57 5.773 6.23 0 2.887-1.549 5.21-3.943 5.95.634 1.372 2.43 2.393 3.767 2.463l.422.035v.423c0 .105-.035.176-.07.211v.317l-.423-.035zM6.02 1.197c-2.113 0-3.45 1.9-3.45 4.998 0 3.063 1.302 4.999 3.45 4.999 2.111 0 3.449-1.901 3.449-4.999 0-3.062-1.338-4.998-3.45-4.998z" transform="translate(0 36.96) translate(33.088 .352)"/>
                <path d="M11.51 15.594c-3.027-.036-5.315-1.127-7.25-3.38C1.794 11.475.21 9.152.21 6.23.211 2.57 2.605 0 5.984 0c3.414 0 5.773 2.57 5.773 6.23 0 2.887-1.549 5.21-3.943 5.95.634 1.372 2.43 2.393 3.767 2.463l.422.035v.423c0 .105-.035.176-.07.211v.317l-.423-.035zM6.02 1.197c-2.113 0-3.45 1.9-3.45 4.998 0 3.063 1.302 4.999 3.45 4.999 2.111 0 3.449-1.901 3.449-4.999 0-3.062-1.338-4.998-3.45-4.998z" transform="translate(0 36.96) translate(33.088 .352)"/>
            </g>
            <g>
                <path d="M6.02 12.285c-3.345 0-4.788-1.584-4.788-5.315V2.64c0-.986-.176-1.338-.704-1.408l-.387-.07v-.88h1.337c1.444 0 1.866.528 1.866 2.323v4.857c0 2.5.845 3.556 2.851 3.556 2.429 0 3.344-1.092 3.344-4.048V.317h1.267V6.97c0 3.168-.81 5.315-4.787 5.315z" transform="translate(0 36.96) translate(45.408 .352)"/>
                <path d="M6.02 12.285c-3.345 0-4.788-1.584-4.788-5.315V2.64c0-.986-.176-1.338-.704-1.408l-.387-.07v-.88h1.337c1.444 0 1.866.528 1.866 2.323v4.857c0 2.5.845 3.556 2.851 3.556 2.429 0 3.344-1.092 3.344-4.048V.317h1.267V6.97c0 3.168-.81 5.315-4.787 5.315z" transform="translate(0 36.96) translate(45.408 .352)"/>
            </g>
            <g>
                <path d="M1.302 12.109V2.64c0-.986-.176-1.302-.704-1.408l-.387-.07V.317h7.322c1.549 0 1.795 1.02 1.795 1.654v1.232h-.88l-.07-.352c-.106-.528-.388-1.267-1.901-1.267H3.45v3.872h4.787v1.232H3.45v4.189H6.3c1.409 0 2.148-.423 2.64-1.408l.106-.247h.986l-.74 1.901c-.246.669-.809 1.021-1.583 1.021H1.302v-.035z" transform="translate(0 36.96) translate(57.376 .352)"/>
                <path d="M1.302 12.109V2.64c0-.986-.176-1.302-.704-1.408l-.387-.07V.317h7.322c1.549 0 1.795 1.02 1.795 1.654v1.232h-.88l-.07-.352c-.106-.528-.388-1.267-1.901-1.267H3.45v3.872h4.787v1.232H3.45v4.189H6.3c1.409 0 2.148-.423 2.64-1.408l.106-.247h.986l-.74 1.901c-.246.669-.809 1.021-1.583 1.021H1.302v-.035z" transform="translate(0 36.96) translate(57.376 .352)"/>
            </g>
            <g>
                <path d="M.106 12.109v-.704l.07-.106c.035-.07 4.858-6.758 7.005-9.75H3.485c-1.514 0-1.795.704-1.901 1.267l-.07.387-.88-.035V1.971C.634 1.373.88.317 2.429.317H10.7s-5.914 8.272-7.533 10.56h7.005v1.267H.106v-.035z" transform="translate(0 36.96) translate(72.16 .352)"/>
                <path d="M.106 12.109v-.704l.07-.106c.035-.07 4.858-6.758 7.005-9.75H3.485c-1.514 0-1.795.704-1.901 1.267l-.07.387-.88-.035V1.971C.634 1.373.88.317 2.429.317H10.7s-5.914 8.272-7.533 10.56h7.005v1.267H.106v-.035z" transform="translate(0 36.96) translate(72.16 .352)"/>
            </g>
            <g>
                <path d="M2.077 12.109C.634 12.109.21 11.58.21 9.786V.316h2.147v9.47c0 .985.176 1.302.704 1.408l.388.07v.88H2.077v-.035z" transform="translate(0 36.96) translate(83.776 .352)"/>
                <path d="M2.077 12.109C.634 12.109.21 11.58.21 9.786V.316h2.147v9.47c0 .985.176 1.302.704 1.408l.388.07v.88H2.077v-.035z" transform="translate(0 36.96) translate(83.776 .352)"/>
            </g>
            <g>
                <path d="M4.224 12.109V1.549H2.922c-1.514 0-1.796.704-1.901 1.267l-.07.352H.07V1.936C.07 1.338.316.282 1.865.282h8.518v1.232H6.406v10.56H4.224v.035z" transform="translate(0 36.96) translate(87.296 .352)"/>
                <path d="M4.224 12.109V1.549H2.922c-1.514 0-1.796.704-1.901 1.267l-.07.352H.07V1.936C.07 1.338.316.282 1.865.282h8.518v1.232H6.406v10.56H4.224v.035z" transform="translate(0 36.96) translate(87.296 .352)"/>
            </g>
            <g>
                <path d="M5.914 12.778c-3.415 0-5.773-2.57-5.773-6.23C.14 2.885 2.499.316 5.914.316c3.414 0 5.772 2.57 5.772 6.23 0 3.696-2.393 6.23-5.772 6.23zm0-11.23c-2.112 0-3.45 1.902-3.45 5 0 3.062 1.338 4.998 3.45 4.998s3.45-1.901 3.45-4.999c0-3.062-1.338-4.998-3.45-4.998z" transform="translate(0 36.96) translate(97.504)"/>
                <path d="M5.914 12.778c-3.415 0-5.773-2.57-5.773-6.23C.14 2.885 2.499.316 5.914.316c3.414 0 5.772 2.57 5.772 6.23 0 3.696-2.393 6.23-5.772 6.23zm0-11.23c-2.112 0-3.45 1.902-3.45 5 0 3.062 1.338 4.998 3.45 4.998s3.45-1.901 3.45-4.999c0-3.062-1.338-4.998-3.45-4.998z" transform="translate(0 36.96) translate(97.504)"/>
            </g>
            <g>
                <path d="M5.914 12.285c-3.38 0-4.788-1.584-4.788-5.315V2.64c0-.986-.176-1.302-.668-1.408l-.388-.07v-.88h1.338c1.443 0 1.866.528 1.866 2.323v4.857c0 2.5.844 3.556 2.85 3.556 2.43 0 3.345-1.092 3.345-4.048V.317h1.267V6.97c0 3.168-.845 5.315-4.822 5.315z" transform="translate(0 36.96) translate(109.824 .352)"/>
                <path d="M5.914 12.285c-3.38 0-4.788-1.584-4.788-5.315V2.64c0-.986-.176-1.302-.668-1.408l-.388-.07v-.88h1.338c1.443 0 1.866.528 1.866 2.323v4.857c0 2.5.844 3.556 2.85 3.556 2.43 0 3.345-1.092 3.345-4.048V.317h1.267V6.97c0 3.168-.845 5.315-4.822 5.315z" transform="translate(0 36.96) translate(109.824 .352)"/>
            </g>
            <g>
                <path d="M10.032 12.285l-.14-.176c-.106-.106-4.295-5.14-7.076-8.448v8.448H1.549V2.64c0-.88-.282-1.267-.915-1.373l-.352-.07v-.88h.95c1.126 0 1.971.352 2.605 1.126l5.737 6.829V.352h1.268V12.32h-.81v-.035z" transform="translate(0 36.96) translate(121.44 .352)"/>
                <path d="M10.032 12.285l-.14-.176c-.106-.106-4.295-5.14-7.076-8.448v8.448H1.549V2.64c0-.88-.282-1.267-.915-1.373l-.352-.07v-.88h.95c1.126 0 1.971.352 2.605 1.126l5.737 6.829V.352h1.268V12.32h-.81v-.035z" transform="translate(0 36.96) translate(121.44 .352)"/>
            </g>
            <g>
                <path d="M11.158 12.18c-.88 0-2.428-.318-3.273-2.394l-.387-.916H2.886c-.316.74-1.232 2.816-1.302 2.957l-.106.247H.07l.282-.634c.106-.246 1.795-4.083 3.168-7.18C4.4 2.252 5.14.597 5.174.527L5.28.246h.88l.106.282c.07.14 2.57 5.949 3.872 9.011.528 1.267.915 1.514 1.584 1.584l.387.035v.81l-.352.07c-.176.141-.387.141-.599.141zM6.934 7.602L5.21 3.661 3.414 7.603h3.52z" transform="translate(0 36.96) translate(133.056 .352)"/>
                <path d="M11.158 12.18c-.88 0-2.428-.318-3.273-2.394l-.387-.916H2.886c-.316.74-1.232 2.816-1.302 2.957l-.106.247H.07l.282-.634c.106-.246 1.795-4.083 3.168-7.18C4.4 2.252 5.14.597 5.174.527L5.28.246h.88l.106.282c.07.14 2.57 5.949 3.872 9.011.528 1.267.915 1.514 1.584 1.584l.387.035v.81l-.352.07c-.176.141-.387.141-.599.141zM6.934 7.602L5.21 3.661 3.414 7.603h3.52z" transform="translate(0 36.96) translate(133.056 .352)"/>
            </g>
        </g>
    </g>
</svg>
